<svg xmlns="http://www.w3.org/2000/svg" width="120" height="120" viewBox="0 0 120 120" fill="none">
    <path
        d="M64.2856 4.28571C68.2639 4.28571 72.0792 5.86606 74.8922 8.6791C77.7053 11.4921 79.2856 15.3075 79.2856 19.2857C79.2856 23.264 77.7053 27.0793 74.8922 29.8923C72.0792 32.7054 68.2639 34.2857 64.2856 34.2857H4.28564"
        stroke="#000001" stroke-linecap="round" stroke-linejoin="round" />
    <path
        d="M100.714 90C104.692 90 108.508 88.4196 111.321 85.6066C114.134 82.7936 115.714 78.9782 115.714 75C115.714 71.0218 114.134 67.2064 111.321 64.3934C108.508 61.5804 104.692 60 100.714 60H17.1428"
        stroke="#000001" stroke-linecap="round" stroke-linejoin="round" />
    <path
        d="M62.1429 115.714C66.1211 115.714 69.9364 114.134 72.7495 111.321C75.5625 108.508 77.1429 104.693 77.1429 100.714C77.1429 96.736 75.5625 92.9207 72.7495 90.1077C69.9364 87.2946 66.1211 85.7143 62.1429 85.7143H12.8572"
        stroke="#000001" stroke-linecap="round" stroke-linejoin="round" />
</svg>