<svg xmlns="http://www.w3.org/2000/svg" width="120" height="120" viewBox="0 0 120 120" fill="none">
    <path
        d="M4.28564 4.28571V23.5714C4.28564 29.2546 6.54329 34.7051 10.5619 38.7237C14.5806 42.7423 20.031 45 25.7142 45C31.3974 45 36.8479 42.7423 40.8665 38.7237C44.8851 34.7051 47.1428 29.2546 47.1428 23.5714V4.28571"
        stroke="#000001" stroke-linecap="round" stroke-linejoin="round" />
    <path d="M25.7141 4.28571V115.714" stroke="#000001" stroke-linecap="round"
        stroke-linejoin="round" />
    <path
        d="M115.714 115.714C100.938 115.714 86.7668 109.844 76.3183 99.3959C65.8699 88.9475 60 74.7763 60 60C60 45.2236 65.8699 31.0525 76.3183 20.604C86.7668 10.1556 100.938 4.28571 115.714 4.28571"
        stroke="#000001" stroke-linecap="round" stroke-linejoin="round" />
    <path
        d="M115.714 90C107.758 90 100.127 86.8393 94.5009 81.2132C88.8748 75.5871 85.7141 67.9565 85.7141 60C85.7141 52.0435 88.8748 44.4129 94.5009 38.7868C100.127 33.1607 107.758 30 115.714 30"
        stroke="#000001" stroke-linecap="round" stroke-linejoin="round" />
</svg>