<svg width="120" height="120" viewBox="0 0 120 120" fill="none" xmlns="http://www.w3.org/2000/svg">
<path d="M111.428 21.4286H8.57136C6.20442 21.4286 4.28564 23.3474 4.28564 25.7143V94.2857C4.28564 96.6527 6.20442 98.5714 8.57136 98.5714H111.428C113.795 98.5714 115.714 96.6527 115.714 94.2857V25.7143C115.714 23.3474 113.795 21.4286 111.428 21.4286Z" stroke="#000001" stroke-linecap="round" stroke-linejoin="round"/>
<path d="M72.857 38.5714H25.7142C23.3472 38.5714 21.4285 40.4902 21.4285 42.8571V77.1428C21.4285 79.5098 23.3472 81.4286 25.7142 81.4286H72.857C75.224 81.4286 77.1427 79.5098 77.1427 77.1428V42.8571C77.1427 40.4902 75.224 38.5714 72.857 38.5714Z" stroke="#000001" stroke-linecap="round" stroke-linejoin="round"/>
<path d="M94.2856 42.8571H98.5714" stroke="#000001" stroke-linecap="round" stroke-linejoin="round"/>
<path d="M94.2856 55.7143H98.5714" stroke="#000001" stroke-linecap="round" stroke-linejoin="round"/>
</svg>
