<svg xmlns="http://www.w3.org/2000/svg" width="120" height="120" viewBox="0 0 120 120" fill="none">
    <path
        d="M90 4.28571H30.0001C15.7984 4.28571 4.28577 15.7984 4.28577 30V90C4.28577 104.202 15.7984 115.714 30.0001 115.714H90C104.202 115.714 115.714 104.202 115.714 90V30C115.714 15.7984 104.202 4.28571 90 4.28571Z"
        stroke="#000001" stroke-linecap="round" stroke-linejoin="round" />
    <path d="M47.1429 30V90" stroke="#000001" stroke-linecap="round" stroke-linejoin="round" />
    <path
        d="M47.1429 64.2857H64.2858C68.8324 64.2857 73.1927 62.4796 76.4076 59.2647C79.6225 56.0498 81.4287 51.6894 81.4287 47.1429C81.4287 42.5963 79.6225 38.2359 76.4076 35.021C73.1927 31.8061 68.8324 30 64.2858 30H47.1429"
        stroke="#000001" stroke-linecap="round" stroke-linejoin="round" />
</svg>