<svg width="116" height="119" viewBox="0 0 116 119" fill="none" xmlns="http://www.w3.org/2000/svg">
<path d="M21.75 103.281C21.75 103.281 14.5 103.281 14.5 95.9035C14.5 88.5263 21.75 66.3947 58 66.3947C94.25 66.3947 101.5 88.5263 101.5 95.9035C101.5 103.281 94.25 103.281 94.25 103.281H21.75ZM58 59.0176C63.7685 59.0176 69.3007 56.6858 73.3796 52.5354C77.4585 48.3849 79.75 42.7556 79.75 36.886C79.75 31.0163 77.4585 25.3871 73.3796 21.2366C69.3007 17.0861 63.7685 14.7544 58 14.7544C52.2315 14.7544 46.6993 17.0861 42.6204 21.2366C38.5415 25.3871 36.25 31.0163 36.25 36.886C36.25 42.7556 38.5415 48.3849 42.6204 52.5354C46.6993 56.6858 52.2315 59.0176 58 59.0176Z" fill="black"/>
</svg>
