<svg xmlns="http://www.w3.org/2000/svg" width="120" height="120" viewBox="0 0 120 120" fill="none">
    <path
        d="M12.8571 81.4286C17.5909 81.4286 21.4285 75.6722 21.4285 68.5714C21.4285 61.4706 17.5909 55.7143 12.8571 55.7143C8.1232 55.7143 4.28564 61.4706 4.28564 68.5714C4.28564 75.6722 8.1232 81.4286 12.8571 81.4286Z"
        stroke="#000001" stroke-linecap="round" stroke-linejoin="round" />
    <path
        d="M38.5714 42.8572C43.3053 42.8572 47.1429 37.1008 47.1429 30C47.1429 22.8992 43.3053 17.1429 38.5714 17.1429C33.8376 17.1429 30 22.8992 30 30C30 37.1008 33.8376 42.8572 38.5714 42.8572Z"
        stroke="#000001" stroke-linecap="round" stroke-linejoin="round" />
    <path
        d="M81.4286 42.8572C86.1625 42.8572 90 37.1008 90 30C90 22.8992 86.1625 17.1429 81.4286 17.1429C76.6947 17.1429 72.8572 22.8992 72.8572 30C72.8572 37.1008 76.6947 42.8572 81.4286 42.8572Z"
        stroke="#000001" stroke-linecap="round" stroke-linejoin="round" />
    <path
        d="M107.143 81.4286C111.877 81.4286 115.714 75.6722 115.714 68.5714C115.714 61.4706 111.877 55.7143 107.143 55.7143C102.409 55.7143 98.5713 61.4706 98.5713 68.5714C98.5713 75.6722 102.409 81.4286 107.143 81.4286Z"
        stroke="#000001" stroke-linecap="round" stroke-linejoin="round" />
    <path
        d="M85.7142 85.7143C85.7142 97.5429 71.8285 102.857 59.9999 102.857C48.1714 102.857 34.2856 97.5429 34.2856 85.7143C34.2856 73.8857 42.8571 55.7143 59.9999 55.7143C77.1428 55.7143 85.7142 73.8857 85.7142 85.7143Z"
        stroke="#000001" stroke-linecap="round" stroke-linejoin="round" />
</svg>