<svg xmlns="http://www.w3.org/2000/svg" width="124" height="127" viewBox="0 0 124 127" fill="none">
    <path
        d="M118.981 121.789H114.574C109.899 121.789 105.416 119.888 102.11 116.504C98.8044 113.12 96.9473 108.531 96.9473 103.746C96.9473 108.531 95.0902 113.12 91.7845 116.504C88.4788 119.888 83.9954 121.789 79.3205 121.789C74.6456 121.789 70.1621 119.888 66.8565 116.504C63.5508 113.12 61.6937 108.531 61.6937 103.746C61.6937 108.531 59.8366 113.12 56.531 116.504C53.2253 119.888 48.7419 121.789 44.067 121.789C39.3921 121.789 34.9086 119.888 31.603 116.504C28.2973 113.12 26.4402 108.531 26.4402 103.746C26.4402 108.531 24.5831 113.12 21.2774 116.504C17.9718 119.888 13.4883 121.789 8.81343 121.789H4.40674"
        stroke="#000001" stroke-linecap="round" stroke-linejoin="round" />
    <path
        d="M22.0334 22.5534C22.0334 17.7682 23.8905 13.179 27.1962 9.79528C30.5019 6.41161 34.9853 4.51068 39.6602 4.51068C44.3351 4.51068 48.8186 6.41161 52.1242 9.79528C55.4299 13.179 57.287 17.7682 57.287 22.5534V85.703"
        stroke="#000001" stroke-linecap="round" stroke-linejoin="round" />
    <path
        d="M83.7273 4.51068C88.4022 4.51068 92.8856 6.41161 96.1913 9.79528C99.497 13.179 101.354 17.7682 101.354 22.5534V85.703"
        stroke="#000001" stroke-linecap="round" stroke-linejoin="round" />
    <path d="M57.2871 40.5962H101.354" stroke="#000001" stroke-linecap="round"
        stroke-linejoin="round" />
    <path d="M57.2871 67.6603H101.354" stroke="#000001" stroke-linecap="round"
        stroke-linejoin="round" />
</svg>