<svg width="120" height="120" viewBox="0 0 120 120" fill="none" xmlns="http://www.w3.org/2000/svg">
<path d="M4.28564 72.8571H115.714V90C115.714 96.8198 113.005 103.36 108.183 108.183C103.36 113.005 96.8198 115.714 89.9999 115.714H29.9999C23.1801 115.714 16.6395 113.005 11.8172 108.183C6.99482 103.36 4.28564 96.8198 4.28564 90V72.8571Z" stroke="#000001" stroke-linecap="round" stroke-linejoin="round"/>
<path d="M64.2857 21.4286C64.2857 16.882 62.4796 12.5216 59.2647 9.30673C56.0498 6.09182 51.6894 4.28571 47.1429 4.28571C42.5963 4.28571 38.2359 6.09182 35.021 9.30673C31.8061 12.5216 30 16.882 30 21.4286V72.8571" stroke="#000001" stroke-linecap="round" stroke-linejoin="round"/>
<path d="M64.2856 38.5714V47.1428" stroke="#000001" stroke-linecap="round" stroke-linejoin="round"/>
</svg>
