<svg xmlns="http://www.w3.org/2000/svg" width="116" height="105" viewBox="0 0 116 105" fill="none">
    <path
        d="M110.047 85.6287C75.3794 80.5764 40.1875 80.5764 5.52011 85.6287C4.89922 85.7186 4.26673 85.6718 3.66491 85.4915C3.06309 85.3111 2.50581 85.0014 2.03029 84.583C1.55477 84.1646 1.17196 83.6471 0.907461 83.0651C0.642958 82.4831 0.502845 81.8501 0.496483 81.2082V5.78954C0.487998 5.14299 0.618188 4.50241 0.877873 3.91296C1.13756 3.32352 1.52041 2.79956 1.99944 2.37805C2.47847 1.95653 3.04201 1.64772 3.65032 1.47339C4.25863 1.29905 4.8969 1.26344 5.52011 1.36907C40.1938 6.33087 75.3732 6.33087 110.047 1.36907C110.663 1.26473 111.293 1.2983 111.895 1.46746C112.497 1.63663 113.056 1.93736 113.534 2.34894C114.011 2.76053 114.396 3.27318 114.661 3.85158C114.926 4.42998 115.066 5.06037 115.07 5.69933V81.118C115.077 81.7675 114.946 82.4106 114.687 83.0035C114.428 83.5964 114.047 84.1251 113.57 84.5534C113.093 84.9817 112.531 85.2995 111.923 85.4851C111.315 85.6707 110.675 85.7197 110.047 85.6287V85.6287Z"
        stroke="#000001" stroke-linecap="round" stroke-linejoin="round" />
    <path d="M57.7834 81.8397V104.393" stroke="#000001" stroke-linecap="round"
        stroke-linejoin="round" />
    <path d="M35.75 104.393H79.8169" stroke="#000001" stroke-linecap="round" stroke-linejoin="round" />
</svg>