<svg xmlns="http://www.w3.org/2000/svg" width="124" height="127" viewBox="0 0 124 127" fill="none">
    <path
        d="M61.6937 110.512C68.0701 110.512 73.2393 105.221 73.2393 98.6938C73.2393 92.1669 68.0701 86.8759 61.6937 86.8759C55.3173 86.8759 50.1482 92.1669 50.1482 98.6938C50.1482 105.221 55.3173 110.512 61.6937 110.512Z"
        stroke="#000001" stroke-linecap="round" stroke-linejoin="round" />
    <path
        d="M39.9246 72.171C42.7905 69.1594 46.2166 66.7658 50.0008 65.1315C53.785 63.4971 57.8507 62.6551 61.958 62.6551C66.0653 62.6551 70.131 63.4971 73.9152 65.1315C77.6995 66.7658 81.1256 69.1594 83.9915 72.171"
        stroke="#000001" stroke-linecap="round" stroke-linejoin="round" />
    <path
        d="M20.7996 56.9249C26.1644 51.4014 32.5431 47.0181 39.5688 44.0271C46.5945 41.036 54.1286 39.4962 61.7377 39.4962C69.3469 39.4962 76.881 41.036 83.9067 44.0271C90.9324 47.0181 97.3111 51.4014 102.676 56.9249"
        stroke="#000001" stroke-linecap="round" stroke-linejoin="round" />
    <path
        d="M4.40674 40.1451C11.9284 32.442 20.8591 26.3313 30.6886 22.1622C40.5181 17.993 51.0538 15.8472 61.6937 15.8472C72.3337 15.8472 82.8694 17.993 92.6989 22.1622C102.528 26.3313 111.459 32.442 118.981 40.1451"
        stroke="#000001" stroke-linecap="round" stroke-linejoin="round" />
</svg>